<svg xmlns="http://www.w3.org/2000/svg" width="34" height="34" viewBox="0 0 34 34"><path d="M181.025,7.636a7.238,7.238,0,0,0,1.859-3.619,16.669,16.669,0,0,0-16.9-2.883,43.41,43.41,0,0,1,7.841,10.921A17.776,17.776,0,0,0,181.025,7.636Zm0,0" transform="translate(-154.966)" fill="#fff"/><path d="M305.242,87.921a19.532,19.532,0,0,1-7.789,4.9c.4.885.774,1.788,1.123,2.7a24.518,24.518,0,0,1,5.156-.562,24.223,24.223,0,0,1,7.952,1.335c0-.114.017-.225.017-.339a16.848,16.848,0,0,0-4.434-11.384A9.878,9.878,0,0,1,305.242,87.921Zm0,0" transform="translate(-277.7 -78.954)" fill="#fff"/><path d="M5.848,41.71a39.454,39.454,0,0,0,6.717.59,36.189,36.189,0,0,0,9.84-1.348A41.224,41.224,0,0,0,14.532,30.3,17.29,17.29,0,0,0,5.848,41.71Zm0,0" transform="translate(-5.459 -28.289)" fill="#fff"/><path d="M336.711,272.394a22.13,22.13,0,0,0-7.78-1.394,22.661,22.661,0,0,0-4.486.454,49.264,49.264,0,0,1,2.47,14.042A17.062,17.062,0,0,0,336.711,272.394Zm0,0" transform="translate(-302.9 -253.004)" fill="#fff"/><path d="M0,220.724a17.16,17.16,0,0,0,6.274,13.1A14.4,14.4,0,0,1,9.8,226.411a20.012,20.012,0,0,1,9.136-5.631c-.337-.871-.706-1.724-1.1-2.565a37.975,37.975,0,0,1-10.738,1.513,41.466,41.466,0,0,1-7.024-.615c-.05.531-.082,1.067-.082,1.611Zm0,0" transform="translate(0 -203.724)" fill="#fff"/><path d="M125.611,290.156a12.034,12.034,0,0,0-3.158,7.412,16.824,16.824,0,0,0,13.894,1.831,47.305,47.305,0,0,0-2.423-14.325A18.026,18.026,0,0,0,125.611,290.156Zm0,0" transform="translate(-114.321 -266.143)" fill="#fff"/></svg>