<svg xmlns="http://www.w3.org/2000/svg" width="34" height="34" viewBox="0 0 34 34"><path d="M17,0A17.067,17.067,0,0,0,0,17c0,7.968,5.591,15.206,13.016,17V28.376a4.093,4.093,0,0,1-4.589-2.041c-.386-.652-1.071-1.358-1.785-1.306l-.175-1.984a4.1,4.1,0,0,1,3.673,2.273,2.2,2.2,0,0,0,1.278,1.093,2.678,2.678,0,0,0,1.672-.145,4.669,4.669,0,0,1,1.171-2.4h0c-4.428-.66-6.193-3.01-6.893-4.864A7.8,7.8,0,0,1,8.58,11.523a.267.267,0,0,0,.067-.206,6.521,6.521,0,0,1,.2-4.353c.868.257,1.01-.258,3.772,1.42l.478.287c.2.119.137.051.337.036A14.427,14.427,0,0,1,17,8.205a14.49,14.49,0,0,1,3.617.515l.155.016c-.013,0,.042-.01.135-.065,3.451-2.091,3.327-1.407,4.253-1.708a6.632,6.632,0,0,1,.194,4.355c-.1.309,2.992,3.141,1.278,7.687-.7,1.855-2.465,4.2-6.893,4.865h0a4.371,4.371,0,0,1,1.246,3.11V34C28.409,32.206,34,24.968,34,17A17.066,17.066,0,0,0,17,0Zm0,0" fill="#fff"/></svg>