<svg xmlns="http://www.w3.org/2000/svg" width="34" height="34" viewBox="0 0 34 34"><path d="M29.02,0H4.98A4.986,4.986,0,0,0,0,4.98V29.02A4.986,4.986,0,0,0,4.98,34H29.02A4.986,4.986,0,0,0,34,29.02V4.98A4.986,4.986,0,0,0,29.02,0ZM17.066,25.9a8.965,8.965,0,1,1,8.965-8.965A8.975,8.975,0,0,1,17.066,25.9ZM27.027,9.961a2.988,2.988,0,1,1,2.988-2.988A2.992,2.992,0,0,1,27.027,9.961Zm0,0" fill="#fff"/><path d="M393,90a1,1,0,1,0,1,1A1,1,0,0,0,393,90Zm0,0" transform="translate(-365.969 -84.023)" fill="#fff"/><path d="M158.973,150a6.973,6.973,0,1,0,6.973,6.973A6.981,6.981,0,0,0,158.973,150Zm0,0" transform="translate(-141.906 -140.039)" fill="#fff"/></svg>