<svg viewBox="0 0 900 151" xmlns="http://www.w3.org/2000/svg"><g fill="#fff"><path d="M0 45.4C0 29 13.4 15.9 30 15.9v44.7H0zm0 53C0 82 13.4 68.6 30 68.5v81.9H0zm40.9-82.6h30v52c0 16.4-13.4 29.8-30 29.9zm0 89.7h30v15.2c0 16.3-13.4 29.5-30 29.5zm81.9-22.8v68.1c16.5 0 30-13.4 30-29.7v-8.8c.1-16.5-13.4-29.7-30-29.6zm0-37v29.2h29.3c.1-16.3-13-29.3-29.3-29.2.1 0 .1 0 0 0zM82.6 74.9v8.9c0 16.5 13.4 29.7 30 29.7V45c-16.6 0-30 13.4-30 29.9zm30 46.4v29.5c-16.4.1-29.6-13.1-29.7-29.5zm52-.5V74.5c.1-16.5 13.4-29.7 30-29.7v106.1c-16.7-.1-30-13.5-30-30.1zm40.9-75.9c16.5 0 29.8 13.2 30 29.7v46.3c0 16.6-13.4 30-30 30.1zm43.3 75.8V0h30v150.5c-16.6-.1-30-13.4-30-29.8zm45.7-.4V15.8h30v134.5c-16.5-.2-30-13.5-30-30zm38.6-75.4h29.7c0 16.4-13.3 29.8-29.7 29.9zm80.3-29.1h30v134.6h-30zm38.6 8.8v-8.8h30v38.4c-16.6 0-30-13.2-30-29.6zm.1 43.9h29.7V98c-16.3 0-29.7-13.1-29.7-29.5zm72.3-23.2v29.5h-29.7c0-16.3 13.4-29.6 29.7-29.5zm-29.2 75.6V112c0-16.5 13.4-29.7 30-29.7v68.5c-16.5 0-30-13.4-30-29.9zm40.2-76c16.6.1 30 13.5 30 30.1v46.3c-.1 16.5-13.4 29.7-30 29.7zm44.1 0h30v105.5h-30zm40.2.3c16.6.1 30 13.4 30 29.9v15.5h-30zm44-.3h30v105.5h-30zm40.2.1c16.5 0 29.8 13.1 30 29.5v75.9h-30zm73.2.3v29.5h-29.7c.1-16.3 13.3-29.6 29.7-29.5zm-29.9 75.6V112c0-16.5 13.4-29.7 30-29.7v68.5c-16.6-.1-30-13.4-30-29.9zm40.2-76c16.6.1 30 13.5 30 30.1v46.3c-.1 16.5-13.4 29.7-30 29.7zm42.5 30v8.9c0 16.5 13.4 29.7 30 29.7V45c-16.7 0-30 13.4-30 29.9zM870 45.3v29.5h29.7c.1-16.3-13.3-29.6-29.7-29.5zm30 66.7v8.9c0 16.5-13.4 29.9-30 29.9V82.3c16.4-.1 29.8 13.3 30 29.7zm-41 9.3v29.5c-16.4.1-29.6-13.1-29.7-29.5z"/></g></svg>