<svg id="Layer_1" data-name="Layer 1" xmlns="http://www.w3.org/2000/svg" xmlns:xlink="http://www.w3.org/1999/xlink" viewBox="0 0 1000 1000"><defs><linearGradient id="linear-gradient" x1="303.16" y1="725.03" x2="158.17" y2="580.05" gradientTransform="translate(-0.76 3) rotate(0.1)" gradientUnits="userSpaceOnUse"><stop offset="0" stop-color="#006837"/><stop offset="0.23" stop-color="#006032"/><stop offset="0.6" stop-color="#004a23"/><stop offset="1" stop-color="#002a0e"/></linearGradient><linearGradient id="linear-gradient-2" x1="723.56" y1="299.3" x2="822.31" y2="398.05" gradientTransform="matrix(1, 0, 0, 1, 0, 0)" xlink:href="#linear-gradient"/><linearGradient id="linear-gradient-3" x1="262.71" y1="139.64" x2="262.71" y2="769.55" gradientUnits="userSpaceOnUse"><stop offset="0" stop-color="#fcee21"/><stop offset="0.16" stop-color="#cdd525"/><stop offset="0.47" stop-color="#76a72d"/><stop offset="0.72" stop-color="#378532"/><stop offset="0.9" stop-color="#0f7036"/><stop offset="1" stop-color="#006837"/></linearGradient><linearGradient id="linear-gradient-4" x1="467.91" y1="172.95" x2="970.63" y2="172.95" gradientUnits="userSpaceOnUse"><stop offset="0" stop-color="#006837"/><stop offset="0.11" stop-color="#046d38"/><stop offset="0.23" stop-color="#0e7b3c"/><stop offset="0.36" stop-color="#1f9241"/><stop offset="0.49" stop-color="#36b149"/><stop offset="0.51" stop-color="#39b54a"/><stop offset="0.56" stop-color="#41b748"/><stop offset="0.64" stop-color="#57be44"/><stop offset="0.73" stop-color="#7bc83c"/><stop offset="0.85" stop-color="#add732"/><stop offset="0.97" stop-color="#ebe924"/><stop offset="1" stop-color="#fcee21"/></linearGradient><linearGradient id="linear-gradient-5" x1="738.14" y1="823.87" x2="738.14" y2="231.1" xlink:href="#linear-gradient-3"/><linearGradient id="linear-gradient-6" x1="500.69" y1="828.39" x2="-2.16" y2="828.39" xlink:href="#linear-gradient-4"/></defs><polygon points="369.46 720.04 624.24 720.04 624.08 720.3 369.46 720.04" fill="none"/><polygon points="630.56 282.85 375.8 282.85 375.95 282.6 630.56 282.85" fill="none"/><polygon points="369.28 720.26 121.4 719.83 118 713.83 245.54 501.12 245.59 501.21 369.28 720.26" fill="url(#linear-gradient)"/><polygon points="881.82 288.78 754.65 501.71 754.64 501.7 630.58 282.85 878.44 282.85 881.82 288.78" fill="url(#linear-gradient-2)"/><path d="M507,63.06,375.72,282.85,245.35,501.12,118.18,714.05l-81-143a143.74,143.74,0,0,1,1.63-144.6L123,285.38l1.51-2.53L214,133.11A143.74,143.74,0,0,1,337.4,63.06Z" fill="url(#linear-gradient-3)"/><path d="M878.44,282.85H630.56L376,282.6l-.15.25h-.08L506.46,63.92l.52-.86H670.09a143.75,143.75,0,0,1,125.06,72.86Z" fill="url(#linear-gradient-4)"/><path d="M962.87,431.77a143.75,143.75,0,0,1-1.64,144.59L877,717.47,875.42,720,787.71,866.89A143.72,143.72,0,0,1,664.3,936.94H494.72L624.25,720l130.4-218.33L881.82,288.78Z" fill="url(#linear-gradient-5)"/><path d="M624.25,720,494.72,936.94H328.3a143.75,143.75,0,0,1-125.06-72.86L121.4,719.83l248.06.21,254.62.26.16-.26Z" fill="url(#linear-gradient-6)"/></svg>