<svg id="Layer_1" data-name="Layer 1" xmlns="http://www.w3.org/2000/svg" viewBox="0 0 1000 1000"><rect width="1000" height="1000" rx="80" fill="#3e6ff4"/><path d="M76.5,339.69V663.06c0,30,20.48,56.5,50.31,65L500,754.75,873.19,728c29.83-8.48,50.31-34.94,50.31-65V339.69c0-37.4-31.38-67.73-70.1-67.73L504.08,245.25,146.6,272C107.88,272,76.5,302.29,76.5,339.69Z" fill="#fff"/><path d="M467.47,367.52,431,419.59l-36.44,52.08-36.45,52.07-36.45,52.08h70l-36.23,51.77a1.71,1.71,0,0,1-1.39.72H215.34l36.45-52.07,36.45-52.08,36.44-52.07L361.13,420h-70l36.74-52.49Z" fill="#3e6ff4"/><path d="M526.08,420,489.35,472.5h69.81l-36.34,51.94-36.35,51.94-35.56,50.81a2.64,2.64,0,0,1-2.16,1.12H380.11l36.45-52.07L453,524.16H383L419.59,472l36.54-52.21,36.54-52.22H632.52l-36.23,51.77a1.68,1.68,0,0,1-1.38.72Z" fill="#3e6ff4"/><path d="M690.76,420,654,472.5h69.82l-36.15,51.66h-70l-36.45,52.08-35.65,51a2.64,2.64,0,0,1-2.16,1.12h-68.6l36.5-52.15L547.83,524l36.5-52.16,36.5-52.15,36.5-52.16H797.2L761,419.29a1.7,1.7,0,0,1-1.39.72Z" fill="#3e6ff4"/></svg>