<svg id="Layer_1" data-name="Layer 1" xmlns="http://www.w3.org/2000/svg" viewBox="0 0 1000 548.55"><path d="M76.5,114V437.34c0,30,20.48,56.49,50.31,65L500,529l373.19-26.71c29.83-8.48,50.31-34.93,50.31-65V114c0-37.41-31.38-67.73-70.1-67.73L504.08,19.52,146.6,46.24C107.88,46.24,76.5,76.56,76.5,114Z" fill="#ff6e0b"/><path d="M467.47,141.8,431,193.87l-36.44,52.07L358.14,298l-36.45,52.08h70l-36.23,51.77a1.69,1.69,0,0,1-1.39.73H215.34l36.45-52.08,36.45-52.08,36.44-52.07,36.45-52.07h-70l36.74-52.49Z" fill="#fff"/><path d="M526.08,194.29l-36.73,52.49h69.81l-36.34,51.93-36.35,51.94-35.56,50.81a2.62,2.62,0,0,1-2.16,1.13H380.11l36.45-52.07L453,298.44H383l36.55-52.22L456.13,194l36.54-52.21H632.52l-36.23,51.77a1.68,1.68,0,0,1-1.38.72Z" fill="#fff"/><path d="M690.76,194.29,654,246.78h69.82l-36.15,51.66h-70l-36.45,52.08-35.65,50.94a2.62,2.62,0,0,1-2.16,1.13h-68.6l36.5-52.16,36.51-52.17,36.5-52.15L620.83,194l36.5-52.15H797.2L761,193.57a1.7,1.7,0,0,1-1.39.72Z" fill="#fff"/></svg>