<?xml version="1.0" encoding="UTF-8"?>
<svg xmlns="http://www.w3.org/2000/svg" version="1.1" viewBox="0 0 604 364">
  <defs>
    <style>
      .cls-1 {
        fill: #36f;
      }

      .cls-2 {
        fill: #fff;
        stroke: #000;
        stroke-miterlimit: 10;
      }
    </style>
  </defs>
  <!-- Generator: Adobe Illustrator 28.7.6, SVG Export Plug-In . SVG Version: 1.2.0 Build 188)  -->
  <g>
    <g id="Layer_1">
      <rect class="cls-2" x="67.8" y="57.6" width="470.7" height="245.4"/>
      <g id="Layer_1-2" data-name="Layer_1">
        <path class="cls-1" d="M50,19L304.9,0l249.1,19c27.6,0,50,21.7,50,48.4v231.1c0,8.7-2.4,17-6.7,24.2-8,13.4-22.3,21.8-37.9,22.9l-257.4,18.4-257.4-18.4c-15.5-1.1-29.9-9.4-37.9-22.9-4.3-7.2-6.7-15.4-6.7-24.2V67.5C0,40.8,22.4,19,50,19ZM179,87.3l-26.3,37.7h50l-26,37.3-26,37.2-26,37.2-26,37.2h98.9c.4,0,.8-.2,1-.5l25.9-37.2h-50l26-37.2,26-37.2,26-37.3,26-37.3h-99.5ZM369.2,125c.4,0,.8-.2,1-.5l25.9-37.2h-99.6l-26.1,37.4-26.1,37.4-26.1,37.4h50l-26,37.2-26,37.2h49c.6,0,1.2-.3,1.5-.8l25.3-36.3,25.9-37.1,25.9-37.1h-49.8l26.3-37.7h49,0ZM486.7,125c.4,0,.8-.2,1-.5l25.9-37.2h-99.6l-26,37.3-26.1,37.3-26,37.3-26.1,37.3-26,37.3h49c.6,0,1.2-.3,1.5-.8l25.4-36.4,26-37.2h49.9l25.7-36.8h-49.8l26.3-37.7h48.9Z"/>
      </g>
    </g>
  </g>
</svg>