<svg id="Layer_1" data-name="Layer 1" xmlns="http://www.w3.org/2000/svg" viewBox="0 0 1000 548.55"><path d="M720.25,132.15,502.54,115.51,279.75,132.15c-24.13,0-43.68,18.91-43.68,42.22V375.9c0,18.72,12.76,35.21,31.35,40.49L500,433l232.58-16.65c18.59-5.28,31.35-21.77,31.35-40.49V174.37C763.93,151.06,744.38,132.15,720.25,132.15ZM409.06,354.24H322.59l22.72-32.45L368,289.33l22.71-32.45,22.71-32.46H369.84l22.89-32.71h87L457,224.16l-22.71,32.46-22.72,32.45-22.72,32.46H432.5l-22.57,32.26A1.08,1.08,0,0,1,409.06,354.24Zm59,0H425.28L448,321.79l22.71-32.46h-43.6l22.78-32.54,22.78-32.54,22.76-32.54h87.16L560,224a1,1,0,0,1-.86.45h-42.9l-22.89,32.72h43.51l-22.65,32.37-22.65,32.37-22.16,31.66A1.65,1.65,0,0,1,468.06,354.24ZM662.64,224a1.07,1.07,0,0,1-.87.45H618.88L596,257.14H639.5L617,289.33H573.35l-22.73,32.46-22.21,31.75a1.65,1.65,0,0,1-1.35.7H484.31l22.74-32.5,22.76-32.52,22.75-32.5,22.74-32.5,22.75-32.51h87.17Z" fill="#fff"/></svg>