<?xml version="1.0" encoding="UTF-8"?>
<svg xmlns="http://www.w3.org/2000/svg" version="1.1" viewBox="0 0 603.8 363.2">
  <defs>
    <style>
      .cls-1 {
        fill: #69c;
      }
    </style>
  </defs>
  <!-- Generator: Adobe Illustrator 28.7.7, SVG Export Plug-In . SVG Version: 1.2.0 Build 194)  -->
  <g>
    <g id="Layer_1">
      <path class="cls-1" d="M50,19L304.8,0l249,19c27.6,0,50,21.6,50,48.3v230.5c0,8.7-2.4,17-6.7,24.1-8,13.4-22.3,21.7-37.9,22.8l-257.3,18.4-257.3-18.4c-15.5-1.1-29.9-9.4-37.9-22.8-4.3-7.2-6.7-15.4-6.7-24.1V67.3C0,40.7,22.4,19,50,19ZM178.9,87.1l-26.3,37.6h50l-26,37.2-26,37.1-26,37.1-26,37.1h98.9c.4,0,.8-.2,1-.5l25.9-37.1h-50l26-37.1,26-37.1,26-37.2,26-37.2h-99.5ZM369.1,124.7c.4,0,.8-.2,1-.5l25.9-37.1h-99.6l-26.1,37.3-26.1,37.3-26.1,37.3h50l-26,37.1-26,37.1h49c.6,0,1.2-.3,1.5-.8l25.3-36.2,25.9-37,25.9-37h-49.8l26.3-37.6h49ZM486.5,124.7c.4,0,.8-.2,1-.5l25.9-37.1h-99.6l-26,37.2-26.1,37.2-26,37.2-26.1,37.2-26,37.2h49c.6,0,1.2-.3,1.5-.8l25.4-36.3,26-37.1h49.9l25.7-36.7h-49.8l26.3-37.6h48.9,0Z"/>
    </g>
  </g>
</svg>