<?xml version="1.0" encoding="UTF-8"?>
<svg id="Layer_1" xmlns="http://www.w3.org/2000/svg" viewBox="0 0 603.79 363.2">
  <defs>
    <style>
      .cls-1 {
        fill: #fff;
      }
    </style>
  </defs>
  <path class="cls-1" d="M49.97,19.04L304.8,0l249.02,19.04c27.6,0,49.97,21.62,49.97,48.28v230.52c0,8.7-2.41,16.98-6.7,24.15-8,13.38-22.35,21.68-37.89,22.8l-257.3,18.42-257.3-18.42c-15.55-1.11-29.89-9.42-37.89-22.8C2.41,314.82,0,306.54,0,297.84V67.32C0,40.66,22.37,19.04,49.97,19.04ZM178.92,87.09l-26.3,37.58h49.99l-26,37.15-26,37.15-26,37.15-26,37.15h98.87c.39,0,.76-.19.99-.51l25.94-37.06h-50.01l26-37.15,26-37.15,26-37.15,25.99-37.15h-99.47ZM369.1,124.67c.39,0,.76-.19.99-.51l25.93-37.06h-99.64l-26.1,37.29-26.1,37.29-26.1,37.29h49.97s-26,37.15-26,37.15l-26,37.15h48.95c.61,0,1.19-.3,1.54-.8l25.33-36.2,25.91-37.01,25.89-37.01h-49.81l26.29-37.58h48.94ZM486.46,124.67c.39,0,.76-.19.99-.51l25.93-37.06h-99.62l-26.05,37.23-26.06,37.23-26.05,37.23-26.07,37.24-26.05,37.23h48.98c.61,0,1.19-.3,1.54-.8l25.43-36.34,26.01-37.15h49.89l25.7-36.72h-49.78l26.3-37.58h48.93Z"/>
</svg>