<?xml version="1.0" encoding="utf-8"?>
<!-- Generator: Adobe Illustrator 25.0.1, SVG Export Plug-In . SVG Version: 6.00 Build 0)  -->
<svg version="1.1" id="Layer_1" xmlns="http://www.w3.org/2000/svg" xmlns:xlink="http://www.w3.org/1999/xlink" x="0px" y="0px"
	 viewBox="0 0 555 162" style="enable-background:new 0 0 555 162;" xml:space="preserve">
<style type="text/css">
	.st0{fill:none;}
	.st1{fill:url(#SVGID_1_);}
	.st2{fill:url(#SVGID_2_);}
	.st3{fill:url(#SVGID_3_);}
	.st4{fill:url(#SVGID_4_);}
	.st5{fill:url(#SVGID_5_);}
	.st6{fill:url(#SVGID_6_);}
	.st7{fill:url(#SVGID_7_);}
	.st8{fill:url(#SVGID_8_);}
	.st9{fill:url(#SVGID_9_);}
	.st10{fill:url(#SVGID_10_);}
	.st11{fill:url(#SVGID_11_);}
	.st12{fill:url(#SVGID_12_);}
</style>
<polygon class="st0" points="52.2,107.5 89.6,107.5 89.5,107.6 "/>
<polygon class="st0" points="90.5,43.5 53.2,43.5 53.2,43.4 "/>
<linearGradient id="SVGID_1_" gradientUnits="userSpaceOnUse" x1="42.1604" y1="58.8203" x2="20.9304" y2="80.0603" gradientTransform="matrix(1 1.745328e-03 1.745328e-03 -1 -4.578111e-02 167.5075)">
	<stop  offset="0" style="stop-color:#006837"/>
	<stop  offset="0.23" style="stop-color:#006032"/>
	<stop  offset="0.6" style="stop-color:#004A23"/>
	<stop  offset="1" style="stop-color:#002A0E"/>
</linearGradient>
<polygon class="st1" points="52.2,107.5 15.9,107.5 15.4,106.6 34.1,75.4 34.1,75.4 "/>
<linearGradient id="SVGID_2_" gradientUnits="userSpaceOnUse" x1="104.0853" y1="118.1153" x2="118.5553" y2="103.6553" gradientTransform="matrix(1 0 0 -1 0 164)">
	<stop  offset="0" style="stop-color:#006837"/>
	<stop  offset="0.23" style="stop-color:#006032"/>
	<stop  offset="0.6" style="stop-color:#004A23"/>
	<stop  offset="1" style="stop-color:#002A0E"/>
</linearGradient>
<polygon class="st2" points="127.3,44.3 108.7,75.5 108.6,75.5 90.5,43.5 126.8,43.5 "/>
<linearGradient id="SVGID_3_" gradientUnits="userSpaceOnUse" x1="36.5503" y1="141.51" x2="36.5503" y2="49.24" gradientTransform="matrix(1 0 0 -1 0 164)">
	<stop  offset="0" style="stop-color:#FCEE21"/>
	<stop  offset="0.16" style="stop-color:#CDD525"/>
	<stop  offset="0.47" style="stop-color:#76A72D"/>
	<stop  offset="0.72" style="stop-color:#378532"/>
	<stop  offset="0.9" style="stop-color:#0F7036"/>
	<stop  offset="1" style="stop-color:#006837"/>
</linearGradient>
<path class="st3" d="M72.3,11.4L53.1,43.5L34,75.5l-18.6,31.2L3.5,85.7C-0.2,79.1-0.1,71,3.8,64.5l12.3-20.7l0.2-0.4l13.1-21.9
	c3.8-6.4,10.7-10.3,18.1-10.3h24.7L72.3,11.4z"/>
<linearGradient id="SVGID_4_" gradientUnits="userSpaceOnUse" x1="66.65" y1="136.625" x2="140.25" y2="136.625" gradientTransform="matrix(1 0 0 -1 0 164)">
	<stop  offset="0" style="stop-color:#006837"/>
	<stop  offset="0.11" style="stop-color:#046D38"/>
	<stop  offset="0.23" style="stop-color:#0E7B3C"/>
	<stop  offset="0.36" style="stop-color:#1F9241"/>
	<stop  offset="0.49" style="stop-color:#36B149"/>
	<stop  offset="0.51" style="stop-color:#39B54A"/>
	<stop  offset="0.56" style="stop-color:#41B748"/>
	<stop  offset="0.64" style="stop-color:#57BE44"/>
	<stop  offset="0.73" style="stop-color:#7BC83C"/>
	<stop  offset="0.85" style="stop-color:#ADD732"/>
	<stop  offset="0.97" style="stop-color:#EBE924"/>
	<stop  offset="1" style="stop-color:#FCEE21"/>
</linearGradient>
<path class="st4" d="M126.8,43.5H90.5H53.2l0,0l0,0l19.1-32.1l0.1-0.1h23.9c7.6,0,14.6,4.1,18.3,10.7L126.8,43.5z"/>
<linearGradient id="SVGID_5_" gradientUnits="userSpaceOnUse" x1="106.2286" y1="41.29" x2="106.2286" y2="128.11" gradientTransform="matrix(1 0 0 -1 0 164)">
	<stop  offset="0" style="stop-color:#FCEE21"/>
	<stop  offset="0.16" style="stop-color:#CDD525"/>
	<stop  offset="0.47" style="stop-color:#76A72D"/>
	<stop  offset="0.72" style="stop-color:#378532"/>
	<stop  offset="0.9" style="stop-color:#0F7036"/>
	<stop  offset="1" style="stop-color:#006837"/>
</linearGradient>
<path class="st5" d="M139.1,65.3c3.7,6.6,3.7,14.7-0.2,21.2l-12.3,20.7l-0.2,0.4L113.5,129c-3.8,6.4-10.7,10.3-18.1,10.3H70.6
	l19-31.8l19.1-32l18.6-31.2L139.1,65.3z"/>
<linearGradient id="SVGID_6_" gradientUnits="userSpaceOnUse" x1="71.45" y1="40.62" x2="-2.22" y2="40.62" gradientTransform="matrix(1 0 0 -1 0 164)">
	<stop  offset="0" style="stop-color:#006837"/>
	<stop  offset="0.11" style="stop-color:#046D38"/>
	<stop  offset="0.23" style="stop-color:#0E7B3C"/>
	<stop  offset="0.36" style="stop-color:#1F9241"/>
	<stop  offset="0.49" style="stop-color:#36B149"/>
	<stop  offset="0.51" style="stop-color:#39B54A"/>
	<stop  offset="0.56" style="stop-color:#41B748"/>
	<stop  offset="0.64" style="stop-color:#57BE44"/>
	<stop  offset="0.73" style="stop-color:#7BC83C"/>
	<stop  offset="0.85" style="stop-color:#ADD732"/>
	<stop  offset="0.97" style="stop-color:#EBE924"/>
	<stop  offset="1" style="stop-color:#FCEE21"/>
</linearGradient>
<path class="st6" d="M89.6,107.5l-19,31.8H46.2c-7.6,0-14.6-4.1-18.3-10.7l-12-21.1h36.3L89.6,107.5L89.6,107.5L89.6,107.5z"/>
<path d="M189.9,13.3c12.7,0,21.8,7.3,24.3,18.9h-15.2c-1.6-3.7-5.3-6-9.4-5.9c-6.5,0-10.7,5-10.7,12.8S183.2,52,189.7,52
	c4,0.1,7.7-2.2,9.4-5.9h15.2C211.8,57.6,202.7,65,189.9,65c-15.3,0-25.3-10.7-25.3-25.8S174.7,13.3,189.9,13.3z"/>
<path d="M237.6,65.1c-12,0-21.1-7.8-21.1-20.7s9.1-20.7,21.2-20.7s21.2,7.9,21.2,20.7S249.6,65.1,237.6,65.1z M237.6,52.8
	c3.6,0,6.9-2.7,6.9-8.5s-3.2-8.4-6.9-8.4s-6.8,2.7-6.8,8.4S233.9,52.8,237.6,52.8z"/>
<path d="M290,42.9c0-4.7-2.6-7.4-6.6-7.4s-6.8,2.7-6.8,7.4v21.7h-14.2V24.2h14.1v5.8c2.8-4,7.4-6.3,12.3-6.1
	c9.4,0,15.2,6.6,15.2,17.2v23.5H290V42.9z"/>
<path d="M311.9,35.9h-5V24.2h5v-9.8h14.2v9.8h7.3v11.7h-7.3v13.5c0,2.2,0.9,3.1,3.3,3.1h4.1v12h-6.1c-8.9,0-15.5-3.8-15.5-15.3V35.9
	z"/>
<path d="M352.7,23.7c5.8,0,9.8,2.5,11.9,6.1v-5.6h14.1v40.4h-14.1v-5.6c-2.1,3.6-6.2,6.1-11.9,6.1c-9.6,0-17.2-7.8-17.2-20.7
	S343.1,23.7,352.7,23.7z M357.3,36c-4,0-7.3,2.9-7.3,8.3s3.3,8.4,7.3,8.4s7.4-3,7.4-8.4S361.2,36,357.3,36z"/>
<path d="M383.5,13.2c0-4.1,3.2-7.3,8.3-7.3s8.2,3.2,8.2,7.3s-3.2,7.2-8.2,7.2S383.5,17.2,383.5,13.2z M384.6,24.2h14.1v40.4h-14.1
	V24.2z"/>
<path d="M432.1,42.9c0-4.7-2.6-7.4-6.6-7.4s-6.8,2.7-6.8,7.4v21.7h-14.1V24.2h14.1v5.8c2.8-4,7.4-6.3,12.3-6.1
	c9.4,0,15.2,6.6,15.2,17.2v23.5h-14.1V42.9z"/>
<path d="M470.1,65.1c-12,0-20.5-7.8-20.5-20.7s8.4-20.7,20.5-20.7s20.4,7.7,20.4,20.2c0,1.1-0.1,2.2-0.2,3.3h-26.7
	c0.3,4.7,2.8,6.6,6,6.6c2.2,0.1,4.1-1.2,5-3.2h15.1C487.7,58.9,480.2,65.1,470.1,65.1z M463.6,40.4h12.5c0-3.6-2.8-5.5-6-5.5
	S464.2,36.7,463.6,40.4z"/>
<path d="M508.2,64.6h-14.1V24.2h14.1v7.1c3-4.4,7.6-7.5,13-7.5v15h-4c-5.8,0-9.1,1.9-9.1,8.1L508.2,64.6z"/>
<path d="M166.4,85.8h17.1l12.7,33l12.5-33h17v50.8h-14.1v-28l-9.6,28h-11.8l-9.6-28.2v28.2h-14.1V85.8z"/>
<path d="M246.5,95.7c5.8,0,9.8,2.5,11.9,6.1v-5.6h14.1v40.4h-14.1v-5.6c-2.1,3.6-6.2,6.1-11.9,6.1c-9.6,0-17.2-7.9-17.2-20.7
	S236.9,95.7,246.5,95.7z M251,108c-4,0-7.4,2.9-7.4,8.3s3.3,8.4,7.4,8.4s7.3-3,7.3-8.4S255,108,251,108z"/>
<path d="M292.5,136.6h-14.1V96.2h14.1v7.1c3-4.4,7.6-7.5,13-7.5v15h-4c-5.8,0-9.1,1.9-9.1,8.1L292.5,136.6z"/>
<path d="M324.1,96.2c4.8,0,8.4,1.5,10.9,4.5v-4.1h14.1v59.7h-14.1v-24c-2.7,3.4-6.7,5.3-11,5.2c-9.7,0-18.1-8.3-18.1-20.5
	S314.4,96.2,324.1,96.2z M327.8,108.4c-3.3,0-7.4,2.5-7.4,8.5s4,8.2,7.4,8.2s7.3-2.4,7.3-8.4S331,108.4,327.8,108.4z"/>
<path d="M396.4,136.6h-14.2v-5.8c-2.8,4-7.4,6.3-12.2,6.1c-9.4,0-15.2-6.6-15.2-17.3V96.2h14v21.7c0,4.7,2.7,7.4,6.7,7.4
	s6.7-2.7,6.7-7.4V96.2h14.2L396.4,136.6z"/>
<path d="M417.2,95.7c5.8,0,9.8,2.5,11.9,6.1v-5.6h14.1v40.4h-14.1v-5.6c-2.1,3.6-6.2,6.1-11.9,6.1c-9.6,0-17.2-7.9-17.2-20.7
	S407.7,95.7,417.2,95.7z M421.8,108c-4,0-7.4,2.9-7.4,8.3s3.3,8.4,7.4,8.4s7.3-3,7.3-8.4S425.7,108,421.8,108z"/>
<path d="M463.2,136.6h-14.1V96.2h14.1v7.1c3-4.4,7.6-7.5,13-7.5v15h-4c-5.8,0-9.1,1.9-9.1,8.1L463.2,136.6z"/>
<path d="M494.1,95.7c5.3,0,9.5,2.4,11.7,6V83.3h14.2v53.3h-14.2v-5.6c-2.1,3.6-6.1,6.1-11.8,6.1c-9.6,0-17.2-7.9-17.2-20.7
	S484.5,95.7,494.1,95.7z M498.6,108c-4,0-7.4,2.9-7.4,8.3s3.3,8.4,7.4,8.4s7.3-3,7.3-8.4S502.6,108,498.6,108z"/>
<path d="M528.2,107.9h-5V96.2h5v-9.8h14.2v9.8h7.3v11.7h-7.3v13.5c0,2.2,0.9,3.1,3.3,3.1h4.1v12h-6.1c-8.9,0-15.5-3.8-15.5-15.3
	V107.9z"/>
<polygon class="st0" points="52.2,107.5 89.6,107.5 89.5,107.6 "/>
<polygon class="st0" points="90.5,43.5 53.2,43.5 53.2,43.4 "/>
<linearGradient id="SVGID_7_" gradientUnits="userSpaceOnUse" x1="42.1604" y1="58.8203" x2="20.9304" y2="80.0603" gradientTransform="matrix(1 1.745328e-03 1.745328e-03 -1 -4.578111e-02 167.5075)">
	<stop  offset="0" style="stop-color:#006837"/>
	<stop  offset="0.23" style="stop-color:#006032"/>
	<stop  offset="0.6" style="stop-color:#004A23"/>
	<stop  offset="1" style="stop-color:#002A0E"/>
</linearGradient>
<polygon class="st7" points="52.2,107.5 15.9,107.5 15.4,106.6 34.1,75.4 34.1,75.4 "/>
<linearGradient id="SVGID_8_" gradientUnits="userSpaceOnUse" x1="104.0853" y1="118.1153" x2="118.5553" y2="103.6553" gradientTransform="matrix(1 0 0 -1 0 164)">
	<stop  offset="0" style="stop-color:#006837"/>
	<stop  offset="0.23" style="stop-color:#006032"/>
	<stop  offset="0.6" style="stop-color:#004A23"/>
	<stop  offset="1" style="stop-color:#002A0E"/>
</linearGradient>
<polygon class="st8" points="127.3,44.3 108.7,75.5 108.6,75.5 90.5,43.5 126.8,43.5 "/>
<linearGradient id="SVGID_9_" gradientUnits="userSpaceOnUse" x1="36.5503" y1="141.51" x2="36.5503" y2="49.24" gradientTransform="matrix(1 0 0 -1 0 164)">
	<stop  offset="0" style="stop-color:#FCEE21"/>
	<stop  offset="0.16" style="stop-color:#CDD525"/>
	<stop  offset="0.47" style="stop-color:#76A72D"/>
	<stop  offset="0.72" style="stop-color:#378532"/>
	<stop  offset="0.9" style="stop-color:#0F7036"/>
	<stop  offset="1" style="stop-color:#006837"/>
</linearGradient>
<path class="st9" d="M72.3,11.4L53.1,43.5L34,75.5l-18.6,31.2L3.5,85.7C-0.2,79.1-0.1,71,3.8,64.5l12.3-20.7l0.2-0.4l13.1-21.9
	c3.8-6.4,10.7-10.3,18.1-10.3h24.7L72.3,11.4z"/>
<linearGradient id="SVGID_10_" gradientUnits="userSpaceOnUse" x1="66.65" y1="136.625" x2="140.25" y2="136.625" gradientTransform="matrix(1 0 0 -1 0 164)">
	<stop  offset="0" style="stop-color:#006837"/>
	<stop  offset="0.11" style="stop-color:#046D38"/>
	<stop  offset="0.23" style="stop-color:#0E7B3C"/>
	<stop  offset="0.36" style="stop-color:#1F9241"/>
	<stop  offset="0.49" style="stop-color:#36B149"/>
	<stop  offset="0.51" style="stop-color:#39B54A"/>
	<stop  offset="0.56" style="stop-color:#41B748"/>
	<stop  offset="0.64" style="stop-color:#57BE44"/>
	<stop  offset="0.73" style="stop-color:#7BC83C"/>
	<stop  offset="0.85" style="stop-color:#ADD732"/>
	<stop  offset="0.97" style="stop-color:#EBE924"/>
	<stop  offset="1" style="stop-color:#FCEE21"/>
</linearGradient>
<path class="st10" d="M126.8,43.5H90.5H53.2l0,0l0,0l19.1-32.1l0.1-0.1h23.9c7.6,0,14.6,4.1,18.3,10.7L126.8,43.5z"/>
<linearGradient id="SVGID_11_" gradientUnits="userSpaceOnUse" x1="106.2286" y1="41.29" x2="106.2286" y2="128.11" gradientTransform="matrix(1 0 0 -1 0 164)">
	<stop  offset="0" style="stop-color:#FCEE21"/>
	<stop  offset="0.16" style="stop-color:#CDD525"/>
	<stop  offset="0.47" style="stop-color:#76A72D"/>
	<stop  offset="0.72" style="stop-color:#378532"/>
	<stop  offset="0.9" style="stop-color:#0F7036"/>
	<stop  offset="1" style="stop-color:#006837"/>
</linearGradient>
<path class="st11" d="M139.1,65.3c3.7,6.6,3.7,14.7-0.2,21.2l-12.3,20.7l-0.2,0.4L113.5,129c-3.8,6.4-10.7,10.3-18.1,10.3H70.6
	l19-31.8l19.1-32l18.6-31.2L139.1,65.3z"/>
<linearGradient id="SVGID_12_" gradientUnits="userSpaceOnUse" x1="71.45" y1="40.62" x2="-2.22" y2="40.62" gradientTransform="matrix(1 0 0 -1 0 164)">
	<stop  offset="0" style="stop-color:#006837"/>
	<stop  offset="0.11" style="stop-color:#046D38"/>
	<stop  offset="0.23" style="stop-color:#0E7B3C"/>
	<stop  offset="0.36" style="stop-color:#1F9241"/>
	<stop  offset="0.49" style="stop-color:#36B149"/>
	<stop  offset="0.51" style="stop-color:#39B54A"/>
	<stop  offset="0.56" style="stop-color:#41B748"/>
	<stop  offset="0.64" style="stop-color:#57BE44"/>
	<stop  offset="0.73" style="stop-color:#7BC83C"/>
	<stop  offset="0.85" style="stop-color:#ADD732"/>
	<stop  offset="0.97" style="stop-color:#EBE924"/>
	<stop  offset="1" style="stop-color:#FCEE21"/>
</linearGradient>
<path class="st12" d="M89.6,107.5l-19,31.8H46.2c-7.6,0-14.6-4.1-18.3-10.7l-12-21.1h36.3L89.6,107.5L89.6,107.5L89.6,107.5z"/>
<path d="M189.9,13.3c12.7,0,21.8,7.3,24.3,18.9h-15.2c-1.6-3.7-5.3-6-9.4-5.9c-6.5,0-10.7,5-10.7,12.8S183.2,52,189.7,52
	c4,0.1,7.7-2.2,9.4-5.9h15.2C211.8,57.6,202.7,65,189.9,65c-15.3,0-25.3-10.7-25.3-25.8S174.7,13.3,189.9,13.3z"/>
<path d="M237.6,65.1c-12,0-21.1-7.8-21.1-20.7s9.1-20.7,21.2-20.7s21.2,7.9,21.2,20.7S249.6,65.1,237.6,65.1z M237.6,52.8
	c3.6,0,6.9-2.7,6.9-8.5s-3.2-8.4-6.9-8.4s-6.8,2.7-6.8,8.4S233.9,52.8,237.6,52.8z"/>
<path d="M290,42.9c0-4.7-2.6-7.4-6.6-7.4s-6.8,2.7-6.8,7.4v21.7h-14.2V24.2h14.1v5.8c2.8-4,7.4-6.3,12.3-6.1
	c9.4,0,15.2,6.6,15.2,17.2v23.5H290V42.9z"/>
<path d="M311.9,35.9h-5V24.2h5v-9.8h14.2v9.8h7.3v11.7h-7.3v13.5c0,2.2,0.9,3.1,3.3,3.1h4.1v12h-6.1c-8.9,0-15.5-3.8-15.5-15.3V35.9
	z"/>
<path d="M352.7,23.7c5.8,0,9.8,2.5,11.9,6.1v-5.6h14.1v40.4h-14.1v-5.6c-2.1,3.6-6.2,6.1-11.9,6.1c-9.6,0-17.2-7.8-17.2-20.7
	S343.1,23.7,352.7,23.7z M357.3,36c-4,0-7.3,2.9-7.3,8.3s3.3,8.4,7.3,8.4s7.4-3,7.4-8.4S361.2,36,357.3,36z"/>
<path d="M383.5,13.2c0-4.1,3.2-7.3,8.3-7.3s8.2,3.2,8.2,7.3s-3.2,7.2-8.2,7.2S383.5,17.2,383.5,13.2z M384.6,24.2h14.1v40.4h-14.1
	V24.2z"/>
<path d="M432.1,42.9c0-4.7-2.6-7.4-6.6-7.4s-6.8,2.7-6.8,7.4v21.7h-14.1V24.2h14.1v5.8c2.8-4,7.4-6.3,12.3-6.1
	c9.4,0,15.2,6.6,15.2,17.2v23.5h-14.1V42.9z"/>
<path d="M470.1,65.1c-12,0-20.5-7.8-20.5-20.7s8.4-20.7,20.5-20.7s20.4,7.7,20.4,20.2c0,1.1-0.1,2.2-0.2,3.3h-26.7
	c0.3,4.7,2.8,6.6,6,6.6c2.2,0.1,4.1-1.2,5-3.2h15.1C487.7,58.9,480.2,65.1,470.1,65.1z M463.6,40.4h12.5c0-3.6-2.8-5.5-6-5.5
	S464.2,36.7,463.6,40.4z"/>
<path d="M508.2,64.6h-14.1V24.2h14.1v7.1c3-4.4,7.6-7.5,13-7.5v15h-4c-5.8,0-9.1,1.9-9.1,8.1L508.2,64.6z"/>
<path d="M166.4,85.8h17.1l12.7,33l12.5-33h17v50.8h-14.1v-28l-9.6,28h-11.8l-9.6-28.2v28.2h-14.1V85.8z"/>
<path d="M246.5,95.7c5.8,0,9.8,2.5,11.9,6.1v-5.6h14.1v40.4h-14.1v-5.6c-2.1,3.6-6.2,6.1-11.9,6.1c-9.6,0-17.2-7.9-17.2-20.7
	S236.9,95.7,246.5,95.7z M251,108c-4,0-7.4,2.9-7.4,8.3s3.3,8.4,7.4,8.4s7.3-3,7.3-8.4S255,108,251,108z"/>
<path d="M292.5,136.6h-14.1V96.2h14.1v7.1c3-4.4,7.6-7.5,13-7.5v15h-4c-5.8,0-9.1,1.9-9.1,8.1L292.5,136.6z"/>
<path d="M324.1,96.2c4.8,0,8.4,1.5,10.9,4.5v-4.1h14.1v59.7h-14.1v-24c-2.7,3.4-6.7,5.3-11,5.2c-9.7,0-18.1-8.3-18.1-20.5
	S314.4,96.2,324.1,96.2z M327.8,108.4c-3.3,0-7.4,2.5-7.4,8.5s4,8.2,7.4,8.2s7.3-2.4,7.3-8.4S331,108.4,327.8,108.4z"/>
<path d="M396.4,136.6h-14.2v-5.8c-2.8,4-7.4,6.3-12.2,6.1c-9.4,0-15.2-6.6-15.2-17.3V96.2h14v21.7c0,4.7,2.7,7.4,6.7,7.4
	s6.7-2.7,6.7-7.4V96.2h14.2L396.4,136.6z"/>
<path d="M417.2,95.7c5.8,0,9.8,2.5,11.9,6.1v-5.6h14.1v40.4h-14.1v-5.6c-2.1,3.6-6.2,6.1-11.9,6.1c-9.6,0-17.2-7.9-17.2-20.7
	S407.7,95.7,417.2,95.7z M421.8,108c-4,0-7.4,2.9-7.4,8.3s3.3,8.4,7.4,8.4s7.3-3,7.3-8.4S425.7,108,421.8,108z"/>
<path d="M463.2,136.6h-14.1V96.2h14.1v7.1c3-4.4,7.6-7.5,13-7.5v15h-4c-5.8,0-9.1,1.9-9.1,8.1L463.2,136.6z"/>
<path d="M494.1,95.7c5.3,0,9.5,2.4,11.7,6V83.3h14.2v53.3h-14.2v-5.6c-2.1,3.6-6.1,6.1-11.8,6.1c-9.6,0-17.2-7.9-17.2-20.7
	S484.5,95.7,494.1,95.7z M498.6,108c-4,0-7.4,2.9-7.4,8.3s3.3,8.4,7.4,8.4s7.3-3,7.3-8.4S502.6,108,498.6,108z"/>
<path d="M528.2,107.9h-5V96.2h5v-9.8h14.2v9.8h7.3v11.7h-7.3v13.5c0,2.2,0.9,3.1,3.3,3.1h4.1v12h-6.1c-8.9,0-15.5-3.8-15.5-15.3
	V107.9z"/>
</svg>
